# This file uses centimeters as units for non-parametric coordinates.

mtllib Arch.mtl
g default
v 0.000000 0.000000 0.690000
v 0.304482 1.530734 0.690000
v 0.928036 1.278163 0.690000
v 0.660000 0.000000 0.690000
v 1.171573 2.828427 0.000000
v 1.171573 2.828427 0.690000
v 1.638263 2.361737 0.000000
v 1.638263 2.361737 0.690000
v 2.469266 3.765361 0.000000
v 2.469266 3.765361 0.690000
v 2.721838 3.128013 0.000000
v 2.721838 3.128013 0.690000
v 4.000000 4.442338 0.000000
v 4.000000 4.442338 0.690000
v 4.000000 3.689214 0.000000
v 4.000000 3.689214 0.690000
v 5.530734 3.765361 0.000000
v 5.530734 3.765361 0.690000
v 5.278162 3.086633 0.000000
v 5.278162 3.086633 0.690000
v 6.828427 2.828427 0.000000
v 6.828427 2.828427 0.690000
v 6.361736 2.320356 0.000000
v 6.361736 2.320356 0.690000
v 7.667931 1.530734 0.000000
v 7.667931 1.530734 0.690000
v 7.044376 1.278163 0.000000
v 7.044376 1.278163 0.690000
v 8.000000 -0.000000 0.000000
v 8.000000 -0.000000 0.690000
v 7.340000 -0.000000 0.000000
v 7.340000 -0.000000 0.690000
v 1.171573 2.828427 0.690000
v 1.171573 2.828427 0.000000
v 0.304482 1.530734 0.000000
v 0.914243 1.278163 0.000000
v 0.000000 0.000000 0.000000
v 0.660000 0.000000 0.000000
v 1.273650 1.926310 0.000000
v 1.273650 1.926310 0.690000
v 0.657600 2.224361 0.690000
v 0.657600 2.224361 0.690000
v 0.657600 2.224361 0.000000
v 0.065848 0.843663 0.690000
v 0.065848 0.843663 0.000000
v 0.728914 0.623835 0.000000
v 0.728914 0.623835 0.690000
v 2.182893 2.794614 0.690000
v 2.182893 2.794614 0.000000
v 1.754856 3.333215 0.000000
v 1.754856 3.333215 0.690000
v 3.345856 3.414229 0.690000
v 3.345856 3.414229 0.000000
v 3.216594 4.089898 0.000000
v 3.216594 4.089899 0.690000
v 4.657122 3.372257 0.690000
v 4.657122 3.372257 0.000000
v 4.786973 4.089190 0.000000
v 4.786973 4.089189 0.690000
v 5.868173 2.719175 0.690000
v 5.868173 2.719175 0.000000
v 6.242950 3.311671 0.000000
v 6.242950 3.311671 0.690000
v 6.761749 1.825006 0.690000
v 6.761749 1.825006 0.000000
v 7.271720 2.227016 0.000000
v 7.271720 2.227016 0.690000
v 7.234262 0.670267 0.690000
v 7.234262 0.670267 0.000000
v 7.895504 0.802715 0.000000
v 7.895504 0.802715 0.690000
vt 0.690000 1.441920
vt 0.690000 3.002642
vt 0.000000 3.002642
vt -2.545517 0.690000
vt -4.106240 0.690000
vt -4.106240 0.000000
vt -2.545517 0.000000
vt 3.977480 0.690000
vt 2.674277 0.690000
vt 2.674277 0.000000
vt 3.977480 0.000000
vt -3.142780 0.690000
vt -4.703503 0.690000
vt -4.703503 0.000000
vt -3.142780 0.000000
vt 4.574743 0.690000
vt 3.271540 0.690000
vt 3.271540 0.000000
vt 4.574743 0.000000
vt -0.690000 -1.441920
vt -0.690000 -3.002642
vt 0.000000 -3.002642
vt 0.000000 -1.441920
vt 0.690000 -2.873883
vt 0.690000 -1.570680
vt 0.000000 -1.570680
vt 0.000000 -2.873883
vt -0.690000 0.000000
vt -0.690000 -1.560723
vt 0.000000 -1.560723
vt 0.690000 -1.431966
vt 0.690000 -0.128762
vt 0.000000 -0.128762
vt 0.000000 -1.431966
vt 0.660000 0.000000
vt 0.914243 1.278163
vt 0.304482 1.530734
vt 1.638263 2.361737
vt 1.171573 2.828427
vt -1.638263 2.361737
vt -1.171573 2.828427
vt 2.721838 3.085757
vt 2.469266 3.695518
vt -2.721838 3.085757
vt -2.469266 3.695518
vt 4.000000 3.340000
vt 4.000000 4.000000
vt -4.000000 3.340000
vt -4.000000 4.000000
vt 5.278162 3.085758
vt 5.530734 3.695518
vt -5.278162 3.085758
vt -5.530734 3.695518
vt 6.361736 2.361737
vt 6.828427 2.828427
vt -6.361736 2.361737
vt -6.828427 2.828427
vt 7.085757 1.278163
vt 7.695518 1.530734
vt -7.085757 1.278163
vt -7.695518 1.530734
vt 7.340000 -0.000000
vt 8.000000 -0.000000
vt -7.340000 -0.000000
vt -8.000000 -0.000000
vt -3.142780 0.690000
vt -4.703503 0.690000
vt -4.703503 0.000000
vt -3.142780 0.000000
vt 4.574743 0.690000
vt 3.271540 0.690000
vt 3.271540 0.000000
vt 4.574743 0.000000
vt -2.545517 0.690000
vt -4.106240 0.690000
vt -4.106240 0.000000
vt -2.545517 0.000000
vt 3.977480 0.690000
vt 2.674277 0.690000
vt 2.674277 0.000000
vt 3.977480 0.000000
vt 0.000000 0.000000
vt 0.000000 0.000000
vt 0.690000 3.002642
vt 0.000000 3.002642
vt 0.000000 1.441920
vt -0.792290 1.328677
vt -0.304482 1.530734
vt -1.171573 2.828427
vt -0.690000 2.873883
vt -0.690000 1.570679
vt 0.000000 1.570679
vt 0.000000 2.873883
vt -0.690000 1.431963
vt -0.690000 0.128760
vt 0.000000 0.000000
vt 0.000000 1.560723
vt 0.000000 1.431963
vt 0.000000 0.128760
vt 0.690000 0.000000
vt 0.690000 1.560723
vt -0.660000 0.000000
vt 0.000000 2.267252
vt -1.244469 1.880856
vt -0.690000 2.267252
vt 1.301237 1.857342
vt 0.690000 2.276138
vt 0.767949 2.224361
vt 0.690000 2.276138
vt 0.000000 2.276138
vt -0.767949 2.224361
vt 0.690000 0.761745
vt 0.148609 0.747108
vt 0.000000 0.761745
vt -0.148609 0.747108
vt -0.724567 0.648490
vt 0.000000 0.764816
vt -0.690000 0.764816
vt 0.784089 0.623835
vt 3.329297 0.690000
vt 2.182893 2.725646
vt 3.329297 0.000000
vt -2.182893 2.725646
vt -3.329973 0.000000
vt -1.823824 3.264247
vt -3.329973 0.690000
vt 1.823824 3.264247
vt 3.907784 0.690000
vt 3.345856 3.209882
vt 3.907784 0.000000
vt -3.345856 3.209882
vt -3.904749 0.000000
vt -3.216594 3.844171
vt -3.904749 0.690000
vt 3.216594 3.844171
vt 3.941536 0.690000
vt 4.657122 3.209291
vt 3.941536 0.000000
vt -4.657122 3.209290
vt -3.945171 0.000000
vt -4.786973 3.843462
vt -3.945171 0.690000
vt 4.786973 3.843461
vt 3.334108 0.690000
vt 5.826792 2.719175
vt 3.334108 0.000000
vt -5.826792 2.719175
vt -3.335734 0.000000
vt -6.187776 3.256497
vt -3.335734 0.690000
vt 6.187776 3.256497
vt 0.690000 -2.216201
vt 6.720368 1.825006
vt 0.000000 -2.216201
vt -6.720368 1.825006
vt 0.000000 -2.214998
vt -7.257926 2.185636
vt -0.690000 -2.214998
vt 7.257926 2.185636
vt 0.690000 -0.748567
vt 7.206676 0.670267
vt 0.000000 -0.748567
vt -7.206676 0.670267
vt 0.000000 -0.742282
vt -7.840330 0.802715
vt -0.690000 -0.742282
vt 7.840330 0.802715
vn 0.979748 -0.200171 -0.005013
vn 0.980785 -0.195090 0.000000
vn 0.993954 -0.109801 0.000000
vn 0.979748 -0.200171 -0.005013
vn -0.831470 0.555570 0.000000
vn -0.831470 0.555570 -0.000000
vn -0.831470 0.555570 -0.000000
vn -0.831470 0.555570 0.000000
vn 0.833903 -0.551888 -0.004986
vn 0.831470 -0.555570 0.000000
vn 0.878444 -0.477764 -0.008780
vn 0.833903 -0.551888 -0.004986
vn -0.585372 0.810765 0.000000
vn -0.555570 0.831470 0.000000
vn -0.555570 0.831470 0.000000
vn -0.585372 0.810765 0.000000
vn 0.555570 -0.831470 0.000000
vn 0.577387 -0.816471 0.000000
vn 0.577387 -0.816471 0.000000
vn 0.555570 -0.831470 0.000000
vn -0.404467 0.914553 -0.000000
vn -0.195090 0.980785 0.000000
vn -0.195090 0.980785 0.000000
vn -0.404467 0.914553 -0.000000
vn 0.195090 -0.980785 0.000000
vn 0.402024 -0.915629 0.000000
vn 0.402024 -0.915629 0.000000
vn 0.195090 -0.980785 0.000000
vn 0.404467 0.914553 0.000000
vn 0.195090 0.980785 0.000000
vn 0.195090 0.980785 0.000000
vn 0.404467 0.914553 0.000000
vn -0.195090 -0.980785 0.000000
vn -0.426430 -0.904521 0.000000
vn -0.426430 -0.904521 0.000000
vn -0.195090 -0.980785 0.000000
vn 0.585372 0.810765 0.000000
vn 0.555570 0.831470 0.000000
vn 0.555570 0.831470 0.000000
vn 0.585372 0.810765 0.000000
vn -0.555570 -0.831469 0.000000
vn -0.577387 -0.816470 0.000000
vn -0.577387 -0.816470 0.000000
vn -0.555570 -0.831469 0.000000
vn 0.839623 0.543169 0.000000
vn 0.831470 0.555570 0.000000
vn 0.831470 0.555570 0.000000
vn 0.839623 0.543169 0.000000
vn -0.831470 -0.555570 0.000000
vn -0.836526 -0.547927 0.000000
vn -0.836526 -0.547927 0.000000
vn -0.831470 -0.555570 0.000000
vn 0.977269 0.212003 0.000000
vn 0.980785 0.195090 0.000000
vn 0.980785 0.195090 0.000000
vn 0.977269 0.212003 0.000000
vn -0.980785 -0.195091 0.000000
vn -0.974280 -0.225339 0.000000
vn -0.974280 -0.225339 0.000000
vn -0.980785 -0.195091 0.000000
vn 0.000000 0.000000 1.000000
vn 0.000000 0.000000 1.000000
vn 0.000000 0.000000 1.000000
vn 0.000000 0.000000 1.000000
vn 0.000000 0.000000 1.000000
vn 0.000000 0.000000 1.000000
vn 0.000000 0.000000 1.000000
vn 0.000000 0.000000 1.000000
vn 0.000000 0.000000 -1.000000
vn 0.000000 0.000000 -1.000000
vn 0.000000 0.000000 -1.000000
vn 0.000000 0.000000 -1.000000
vn 0.000000 0.000000 1.000000
vn -0.000000 0.000000 1.000000
vn 0.000000 0.000000 1.000000
vn 0.000000 0.000000 1.000000
vn 0.000000 0.000000 -1.000000
vn 0.000000 0.000000 -1.000000
vn 0.000000 0.000000 -1.000000
vn 0.000000 0.000000 -1.000000
vn -0.000000 0.000000 1.000000
vn -0.000000 0.000000 1.000000
vn 0.000000 0.000000 1.000000
vn 0.000000 0.000000 1.000000
vn 0.000000 0.000000 -1.000000
vn 0.000000 0.000000 -1.000000
vn 0.000000 0.000000 -1.000000
vn 0.000000 0.000000 -1.000000
vn 0.000000 0.000000 1.000000
vn 0.000000 0.000000 1.000000
vn 0.000000 0.000000 1.000000
vn 0.000000 0.000000 1.000000
vn 0.000000 0.000000 -1.000000
vn 0.000000 0.000000 -1.000000
vn 0.000000 0.000000 -1.000000
vn 0.000000 0.000000 -1.000000
vn 0.000000 0.000000 1.000000
vn 0.000000 0.000000 1.000000
vn 0.000000 0.000000 1.000000
vn 0.000000 0.000000 1.000000
vn 0.000000 0.000000 -1.000000
vn 0.000000 0.000000 -1.000000
vn 0.000000 0.000000 -1.000000
vn 0.000000 0.000000 -1.000000
vn 0.000000 0.000000 1.000000
vn 0.000000 0.000000 1.000000
vn 0.000000 0.000000 1.000000
vn 0.000000 0.000000 1.000000
vn 0.000000 0.000000 -1.000000
vn 0.000000 0.000000 -1.000000
vn 0.000000 0.000000 -1.000000
vn 0.000000 0.000000 -1.000000
vn 0.000000 0.000000 1.000000
vn 0.000000 0.000000 1.000000
vn 0.000000 0.000000 1.000000
vn 0.000000 0.000000 1.000000
vn 0.000000 0.000000 -1.000000
vn 0.000000 0.000000 -1.000000
vn 0.000000 0.000000 -1.000000
vn 0.000000 0.000000 -1.000000
vn 0.000000 0.000000 0.000000
vn 0.000000 0.000000 0.000000
vn 0.000000 0.000000 0.000000
vn 0.000000 0.000000 0.000000
vn 0.000000 0.000000 0.000000
vn -0.831470 0.555570 0.000000
vn -0.831470 0.555570 0.000000
vn 0.000000 0.000000 0.000000
vn 0.000000 0.000000 -1.000000
vn 0.000000 0.000000 -1.000000
vn -0.996968 0.077813 0.000000
vn -0.980785 0.195090 0.000000
vn -0.980785 0.195090 0.000000
vn -0.996968 0.077813 0.000000
vn 0.000000 0.000000 -1.000000
vn 0.000000 0.000000 -1.000000
vn 0.000000 0.000000 -1.000000
vn 0.000000 0.000000 -1.000000
vn 0.831470 -0.555570 0.000000
vn 0.831470 -0.555570 0.000000
vn 0.000000 0.000000 1.000000
vn 0.000000 0.000000 1.000000
vn 0.000000 0.000000 0.000000
vn 0.000000 0.000000 0.000000
vn 0.000000 0.000000 0.000000
vn -0.831470 0.555570 0.000000
vn -0.831470 0.555570 0.000000
vn -0.831470 0.555570 0.000000
vn 0.000000 0.000000 -1.000000
vn 0.000000 0.000000 -1.000000
vn -0.944645 0.328095 0.000000
vn -0.944645 0.328095 0.000000
vn 0.980785 -0.195090 0.000000
vn 0.959410 -0.281851 -0.009590
vn 0.000000 0.000000 1.000000
vn 0.000000 0.000000 1.000000
vn 0.555570 -0.831470 0.000000
vn 0.555570 -0.831470 0.000000
vn 0.000000 0.000000 -1.000000
vn 0.000000 0.000000 -1.000000
vn -0.555570 0.831470 0.000000
vn -0.555570 0.831470 0.000000
vn 0.000000 0.000000 1.000000
vn 0.000000 0.000000 1.000000
vn 0.195090 -0.980785 0.000000
vn 0.195090 -0.980785 0.000000
vn 0.000000 0.000000 -1.000000
vn 0.000000 0.000000 -1.000000
vn -0.195090 0.980785 0.000000
vn -0.195090 0.980785 0.000000
vn 0.000000 0.000000 1.000000
vn 0.000000 0.000000 1.000000
vn -0.195090 -0.980785 0.000000
vn -0.195090 -0.980785 0.000000
vn 0.000000 0.000000 -1.000000
vn 0.000000 0.000000 -1.000000
vn 0.195090 0.980785 0.000000
vn 0.195090 0.980785 0.000000
vn 0.000000 0.000000 1.000000
vn 0.000000 0.000000 1.000000
vn -0.555570 -0.831469 0.000000
vn -0.555570 -0.831469 0.000000
vn 0.000000 0.000000 -1.000000
vn 0.000000 0.000000 -1.000000
vn 0.555570 0.831470 0.000000
vn 0.555570 0.831470 0.000000
vn 0.000000 0.000000 1.000000
vn 0.000000 0.000000 1.000000
vn -0.831470 -0.555570 0.000000
vn -0.831470 -0.555570 0.000000
vn 0.000000 0.000000 -1.000000
vn 0.000000 0.000000 -1.000000
vn 0.831470 0.555570 0.000000
vn 0.831470 0.555570 0.000000
vn 0.000000 0.000000 1.000000
vn 0.000000 0.000000 1.000000
vn -0.980785 -0.195091 0.000000
vn -0.980785 -0.195091 0.000000
vn 0.000000 0.000000 -1.000000
vn 0.000000 0.000000 -1.000000
vn 0.980785 0.195090 0.000000
vn 0.980785 0.195090 0.000000
vn 0.000000 0.000000 1.000000
vn 0.000000 0.000000 1.000000
s 1
g Arch
usemtl initialShadingGroup
f 47/118/1 4/95/2 38/99/3 46/117/4
s 2
f 2/1/5 42/109/6 43/110/7 35/86/8
s 3
f 40/105/9 3/91/10 36/92/11 39/103/12
s 4
f 51/126/13 10/5/14 9/6/15 50/124/16
s 5
f 12/8/17 48/120/18 49/122/19 11/11/20
s 6
f 55/134/21 14/13/22 13/14/23 54/132/24
s 7
f 16/16/25 52/128/26 53/130/27 15/19/28
s 8
f 59/142/29 18/67/30 17/68/31 58/140/32
s 9
f 20/70/33 56/136/34 57/138/35 19/73/36
s 10
f 63/150/37 22/75/38 21/76/39 62/148/40
s 11
f 24/78/41 60/144/42 61/146/43 23/81/44
s 12
f 67/158/45 26/21/46 25/22/47 66/156/48
s 13
f 28/24/49 64/152/50 65/154/51 27/27/52
s 14
f 71/166/53 30/29/54 29/30/55 70/164/56
s 15
f 32/31/57 68/160/58 69/162/59 31/34/60
s 16
f 4/35/61 47/119/62 44/113/63 1/83/64
s 17
f 3/36/65 40/106/66 41/108/67 2/37/68
s 18
f 43/111/69 39/104/70 36/87/71 35/88/72
s 19
f 51/127/73 48/121/74 12/42/75 10/43/76
s 20
f 11/44/77 49/123/78 50/125/79 9/45/80
s 21
f 55/135/81 52/129/82 16/46/83 14/47/84
s 22
f 15/48/85 53/131/86 54/133/87 13/49/88
s 23
f 59/143/89 56/137/90 20/50/91 18/51/92
s 24
f 19/52/93 57/139/94 58/141/95 17/53/96
s 25
f 63/151/97 60/145/98 24/54/99 22/55/100
s 26
f 23/56/101 61/147/102 62/149/103 21/57/104
s 27
f 67/159/105 64/153/106 28/58/107 26/59/108
s 28
f 27/60/109 65/155/110 66/157/111 25/61/112
s 29
f 71/167/113 68/161/114 32/62/115 30/63/116
s 30
f 31/64/117 69/163/118 70/165/119 29/65/120
s off
f 2/1/121 41/107/122 42/109/123
f 6/2/124 5/3/125 34/85/126 33/84/127
f 5/41/128 7/40/129 34/89/130
s 31
f 1/100/131 44/112/132 45/114/133 37/96/134
s 18
f 45/115/135 46/116/136 38/102/137 37/96/138
s 3
f 8/90/139 40/105/9 39/103/12 7/93/140
s 17
f 41/108/67 40/106/66 8/38/141 6/39/142
s off
f 42/109/143 41/107/144 6/2/145 33/84/146
s 2
f 43/110/7 42/109/6 33/84/147 34/85/148
s 18
f 7/40/149 39/104/70 43/111/69 34/89/150
s 31
f 44/112/132 2/101/151 35/97/152 45/114/133
s 18
f 35/88/72 36/87/71 46/116/136 45/115/135
s 1
f 3/94/153 47/118/1 46/117/4 36/98/154
s 16
f 44/113/63 47/119/62 3/36/155 2/37/156
s 5
f 48/120/18 8/9/157 7/10/158 49/122/19
s 20
f 50/125/79 49/123/78 7/40/159 5/41/160
s 4
f 6/4/161 51/126/13 50/124/16 5/7/162
s 19
f 8/38/163 48/121/74 51/127/73 6/39/164
s 7
f 52/128/26 12/17/165 11/18/166 53/130/27
s 22
f 54/133/87 53/131/86 11/44/167 9/45/168
s 6
f 10/12/169 55/134/21 54/132/24 9/15/170
s 21
f 12/42/171 52/129/82 55/135/81 10/43/172
s 9
f 56/136/34 16/71/173 15/72/174 57/138/35
s 24
f 58/141/95 57/139/94 15/48/175 13/49/176
s 8
f 14/66/177 59/142/29 58/140/32 13/69/178
s 23
f 16/46/179 56/137/90 59/143/89 14/47/180
s 11
f 60/144/42 20/79/181 19/80/182 61/146/43
s 26
f 62/149/103 61/147/102 19/52/183 17/53/184
s 10
f 18/74/185 63/150/37 62/148/40 17/77/186
s 25
f 20/50/187 60/145/98 63/151/97 18/51/188
s 13
f 64/152/50 24/25/189 23/26/190 65/154/51
s 28
f 66/157/111 65/155/110 23/56/191 21/57/192
s 12
f 22/20/193 67/158/45 66/156/48 21/23/194
s 27
f 24/54/195 64/153/106 67/159/105 22/55/196
s 15
f 68/160/58 28/32/197 27/33/198 69/162/59
s 30
f 70/165/119 69/163/118 27/60/199 25/61/200
s 14
f 26/28/201 71/166/53 70/164/56 25/82/202
s 29
f 28/58/203 68/161/114 71/167/113 26/59/204
