# ProBuilder 4.2.3
# https://unity3d.com/unity/features/worldbuilding/probuilder
# 3/28/2020 8:59:46 PM

mtllib ./Doorway.mtl
o Doorway

g Door
v 0 0 0
v -1 0 0
v 0 3.5 0
v -1 3.5 0
v -3.5 0 0
v -4.5 0 0
v -3.5 3.5 0
v -4.5 3.5 0
v 0 4.5 0
v -1 4.5 0
v -3.5 4.5 0
v -4.5 4.5 0
v -1 0 -1
v 0 0 -1
v -1 3.5 -1
v 0 3.5 -1
v -4.5 0 -1
v -3.5 0 -1
v -4.5 3.5 -1
v -3.5 3.5 -1
v -1 4.5 -1
v 0 4.5 -1
v -4.5 4.5 -1
v -3.5 4.5 -1

vt 0 0
vt -1 0
vt 0 3.5
vt -1 3.5
vt -3.5 0
vt -4.5 0
vt -3.5 3.5
vt -4.5 3.5
vt 0 4.5
vt -1 4.5
vt -3.5 4.5
vt -4.5 4.5
vt 1 0
vt 1 3.5
vt 4.5 0
vt 3.5 0
vt 4.5 3.5
vt 3.5 3.5
vt 1 4.5
vt 4.5 4.5
vt 3.5 4.5
vt -3.5 -1
vt -1 -1

vn 0 0 1
vn 0 0 -1
vn 0 -1 0
vn 1 0 0
vn -1 0 0

usemtl Prototype_512x512_Orange
f 3/3/1 4/4/1 2/2/1 1/1/1
f 7/7/1 8/8/1 6/6/1 5/5/1
f 9/9/1 10/10/1 4/4/1 3/3/1
f 11/11/1 12/12/1 8/8/1 7/7/1
f 10/10/1 11/11/1 7/7/1 4/4/1
f 15/14/2 16/3/2 14/1/2 13/13/2
f 19/17/2 20/18/2 18/16/2 17/15/2
f 21/19/2 22/9/2 16/3/2 15/14/2
f 23/20/2 24/21/2 20/18/2 19/17/2
f 24/21/2 21/19/2 15/14/2 20/18/2
f 20/22/3 15/23/3 4/2/3 7/5/3
f 20/14/4 7/3/4 5/1/4 18/13/4
f 4/3/5 15/4/5 13/2/5 2/1/5

