# ProBuilder 4.2.3
# https://unity3d.com/unity/features/worldbuilding/probuilder
# 3/28/2020 9:01:30 PM

mtllib ./Prism.mtl
o Prism

g Prism
v 0 0 0
v -2 0 0
v -1 3 0
v -2 0 2
v -1 3 2
v 0 0 2

vt 0 0
vt 2 0
vt 1 3
vt 0 -0.6324556
vt 2 -0.6324556
vt 0 2.529822
vt 2 2.529822
vt -2 0
vt -1 3
vt -2 3.162278
vt 0 3.162278
vt 0 2
vt -2 2

vn 0 0 -1
vn -0.9486833 0.3162278 0
vn 0 0 1
vn 0.9486833 0.3162278 0
vn 0 -1 0

usemtl Prototype_512x512_Orange
f 1/1/1 2/2/1 3/3/1
f 4/8/3 6/1/3 5/9/3
f 3/6/2 2/4/2 4/5/2
f 4/5/2 5/7/2 3/6/2
f 5/10/4 6/8/4 1/1/4
f 1/1/4 3/11/4 5/10/4
f 4/13/5 2/8/5 1/1/5
f 1/1/5 6/12/5 4/13/5

