# ProBuilder 4.2.3
# https://unity3d.com/unity/features/worldbuilding/probuilder
# 3/28/2020 8:31:55 PM

mtllib ./BeginRoom.mtl
o BeginRoom

g BeginRoom
v -9.5 0 0
v -10 0 0
v -10 0.5 0
v -9.5 0.5 0
v -10 0 -10
v -9.5 0 -10
v -9.5 0.5 -10
v -10 0.5 -10
v 0 0 0
v -0.5 0 0
v -0.5 0.5 0
v 0 0.5 0
v 0 0 -10
v 0 0.5 -10
v -0.5 0.5 -10
v -0.5 0 -10
v -10 0 -9.5
v -10 0.5 -9.5
v 0 0 -9.5
v 0 0.5 -9.5
v -10 5.5 -10
v -9.5 5.5 -10
v -9.5 5.5 -9.5
v -10 5.5 -9.5
v -9.5 0 -9.5
v -0.5 5.5 -10
v 0 5.5 -10
v 0 5.5 -9.5
v -0.5 5.5 -9.5
v -0.5 0 -9.5
v -10 0 -0.5
v -10 0.5 -0.5
v 0 0.5 -0.5
v 0 0 -0.5
v -9.5 5.5 -0.5
v -9.5 5.5 0
v -10 5.5 0
v -10 5.5 -0.5
v -9.5 0 -0.5
v 0 5.5 -0.5
v 0 5.5 0
v -0.5 5.5 0
v -0.5 5.5 -0.5
v -0.5 0 -0.5
v -10 0 -6
v -10 0.5 -6
v 0 0.5 -6
v 0 0 -6
v -9.5 5.5 -6
v -10 5.5 -6
v -9.5 0 -6
v 0 5.5 -6
v -0.5 5.5 -6
v -0.5 0 -6
v -10 0 -4
v -10 0.5 -4
v 0 0.5 -4
v 0 0 -4
v -9.5 5.5 -4
v -10 5.5 -4
v -9.5 0 -4
v 0 5.5 -4
v -0.5 5.5 -4
v -0.5 0 -4
v -0.5 0.5 -6
v -0.5 0.5 -9.5
v -0.5 3.5 -9.5
v -0.5 3.5 -6
v -0.5 5 -9.5
v -0.5 5 -6
v -9.5 0.5 -6
v -9.5 3.5 -6
v -9.5 3.5 -9.5
v -9.5 0.5 -9.5
v -9.5 5 -6
v -9.5 5 -9.5
v -0.5 0.5 -0.5
v -0.5 0.5 -4
v -0.5 3.5 -4
v -0.5 3.5 -0.5
v -0.5 5 -4
v -0.5 5 -0.5
v -9.5 0.5 -0.5
v -9.5 3.5 -0.5
v -9.5 3.5 -4
v -9.5 0.5 -4
v -9.5 5 -0.5
v -9.5 5 -4
v -4 0 0
v -4 0.5 0
v -4 0.5 -10
v -4 0 -10
v -4 5.5 -10
v -4 5.5 -9.5
v -4 0 -9.5
v -4 5.5 -0.5
v -4 5.5 0
v -4 0 -0.5
v -4 0.5 -9.5
v -4 0.5 -6
v -4 0 -6
v -4 0.5 -4
v -4 0.5 -0.5
v -4 0 -4
v -4 3.5 -9.5
v -4 5 -9.5
v -4 3.5 -0.5
v -4 5 -0.5
v -6 0 0
v -6 0.5 0
v -6 0.5 -10
v -6 0 -10
v -6 5.5 -10
v -6 5.5 -9.5
v -6 0 -9.5
v -6 5.5 -0.5
v -6 5.5 0
v -6 0 -0.5
v -6 0.5 -9.5
v -6 0.5 -6
v -6 0 -6
v -6 0.5 -4
v -6 0.5 -0.5
v -6 0 -4
v -6 3.5 -9.5
v -6 5 -9.5
v -6 3.5 -0.5
v -6 5 -0.5
v 0 3.5 0
v 0 3.5 -0.5
v 0 5 0
v 0 5 -0.5
v 0 3.5 -10
v -0.5 3.5 -10
v 0 5 -10
v -0.5 5 -10
v 0 3.5 -9.5
v 0 5 -9.5
v -10 3.5 -10
v -10 3.5 -9.5
v -10 5 -10
v -10 5 -9.5
v -9.5 3.5 -10
v -9.5 5 -10
v -10 3.5 -0.5
v -10 3.5 0
v -10 5 -0.5
v -10 5 0
v -9.5 3.5 0
v -9.5 5 0
v -0.5 3.5 0
v -0.5 5 0
v 0 3.5 -6
v 0 5 -6
v -10 3.5 -6
v -10 5 -6
v 0 3.5 -4
v 0 5 -4
v -10 3.5 -4
v -10 5 -4
v -4 3.5 -10
v -4 5 -10
v -4 3.5 0
v -4 5 0
v -6 3.5 -10
v -6 5 -10
v -6 3.5 0
v -6 5 0
v -4 0.5 5
v -4 3.5 5
v -6 3.5 5
v -6 0.5 5

vt -9.5 0
vt -10 0
vt -10 0.5
vt -9.5 0.5
vt 10 0
vt 9.5 0
vt 9.5 0.5
vt 10 0.5
vt 0 0
vt -0.5 0
vt -0.5 0.5
vt 0 0.5
vt 0.5 0.5
vt 0.5 0
vt 10 -10
vt 9.5 -10
vt 9.5 -9.5
vt 10 -9.5
vt -10 -10
vt -10 -9.5
vt -9.5 -9.5
vt -9.5 -10
vt 0.5 -10
vt 0 -10
vt 0 -9.5
vt 0.5 -9.5
vt -0.5 -10
vt -0.5 -9.5
vt 9.5 -0.5
vt 10 -0.5
vt -10 -0.5
vt -9.5 -0.5
vt 0 -0.5
vt 0.5 -0.5
vt -0.5 -0.5
vt -6 0
vt -6 0.5
vt 6 0.5
vt 6 0
vt 9.5 -6
vt 10 -6
vt -10 -6
vt -9.5 -6
vt 0 -6
vt 0.5 -6
vt -0.5 -6
vt -4 0
vt -4 0.5
vt 4 0.5
vt 4 0
vt 9.5 -4
vt 10 -4
vt -10 -4
vt -9.5 -4
vt 0 -4
vt 0.5 -4
vt -0.5 -4
vt -9.5 3.5
vt -6 3.5
vt -9.5 5
vt -6 5
vt 6 3.5
vt 9.5 3.5
vt 6 5
vt 9.5 5
vt -4 3.5
vt -0.5 3.5
vt -4 5
vt -0.5 5
vt 0.5 3.5
vt 4 3.5
vt 0.5 5
vt 4 5
vt 4 -10
vt 4 -9.5
vt -4 -9.5
vt -4 -10
vt 4 -0.5
vt -4 -0.5
vt 4 -6
vt -4 -6
vt 4 -4
vt -4 -4
vt 6 -10
vt 6 -9.5
vt -6 -9.5
vt -6 -10
vt 6 -0.5
vt -6 -0.5
vt 6 -6
vt -6 -6
vt 6 -4
vt -6 -4
vt 0 3.5
vt 0 5
vt 10 3.5
vt 10 5
vt -10 3.5
vt -10 5
vt 5 0.5
vt 5 3.5
vt -5 3.5
vt -5 0.5
vt 0.5 5.5
vt 0 5.5
vt 6 5.5
vt 4 5.5
vt -4 5.5
vt -6 5.5
vt 9.5 5.5
vt -9.5 5.5
vt 10 5.5
vt -10 5.5
vt -0.5 5.5

vn 0 0 1
vn 0 0 -1
vn -1 0 0
vn 1 0 0
vn 0 1 0
vn 0 -1 0

usemtl Prototype_512x512_Blue2
f 4/4/1 3/3/1 2/2/1 1/1/1
f 5/5/2 8/8/2 7/7/2 6/6/2
f 12/12/1 11/11/1 10/10/1 9/9/1
f 16/14/2 15/13/2 14/12/2 13/9/2
f 18/4/3 8/3/3 5/2/3 17/1/3
f 13/5/4 14/8/4 20/7/4 19/6/4
f 24/18/5 23/17/5 22/16/5 21/15/5
f 6/22/6 25/21/6 17/20/6 5/19/6
f 29/26/5 28/25/5 27/24/5 26/23/5
f 13/24/6 19/25/6 30/28/6 16/27/6
f 3/12/3 32/11/3 31/10/3 2/9/3
f 34/14/4 33/13/4 12/12/4 9/9/4
f 37/5/5 36/6/5 35/29/5 38/30/5
f 39/32/6 1/1/6 2/2/6 31/31/6
f 42/14/5 41/9/5 40/33/5 43/34/5
f 34/33/6 9/9/6 10/10/6 44/35/6
f 46/37/3 18/4/3 17/1/3 45/36/3
f 19/6/4 20/7/4 47/38/4 48/39/4
f 50/41/5 49/40/5 23/17/5 24/18/5
f 25/21/6 51/43/6 45/42/6 17/20/6
f 53/45/5 52/44/5 28/25/5 29/26/5
f 19/25/6 48/44/6 54/46/6 30/28/6
f 32/11/3 56/48/3 55/47/3 31/10/3
f 56/48/3 46/37/3 45/36/3 55/47/3
f 58/50/4 57/49/4 33/13/4 34/14/4
f 48/39/4 47/38/4 57/49/4 58/50/4
f 60/52/5 59/51/5 49/40/5 50/41/5
f 38/30/5 35/29/5 59/51/5 60/52/5
f 51/43/6 61/54/6 55/53/6 45/42/6
f 61/54/6 39/32/6 31/31/6 55/53/6
f 63/56/5 62/55/5 52/44/5 53/45/5
f 43/34/5 40/33/5 62/55/5 63/56/5
f 48/44/6 58/55/6 64/57/6 54/46/6
f 58/55/6 34/33/6 44/35/6 64/57/6
f 68/59/3 67/58/3 66/4/3 65/37/3
f 70/61/3 69/60/3 67/58/3 68/59/3
f 74/7/4 73/63/4 72/62/4 71/38/4
f 73/63/4 76/65/4 75/64/4 72/62/4
f 80/67/3 79/66/3 78/48/3 77/11/3
f 82/69/3 81/68/3 79/66/3 80/67/3
f 79/66/3 68/59/3 65/37/3 78/48/3
f 81/68/3 70/61/3 68/59/3 79/66/3
f 86/49/4 85/71/4 84/70/4 83/13/4
f 85/71/4 88/73/4 87/72/4 84/70/4
f 71/38/4 72/62/4 85/71/4 86/49/4
f 72/62/4 75/64/4 88/73/4 85/71/4
f 11/11/1 90/48/1 89/47/1 10/10/1
f 92/50/2 91/49/2 15/13/2 16/14/2
f 94/75/5 29/26/5 26/23/5 93/74/5
f 16/27/6 30/28/6 95/76/6 92/77/6
f 97/50/5 42/14/5 43/34/5 96/78/5
f 44/35/6 10/10/6 89/47/6 98/79/6
f 100/80/5 65/45/5 66/26/5 99/75/5
f 30/28/6 54/46/6 101/81/6 95/76/6
f 102/82/5 78/56/5 65/45/5 100/80/5
f 103/78/5 77/34/5 78/56/5 102/82/5
f 54/46/6 64/57/6 104/83/6 101/81/6
f 64/57/6 44/35/6 98/79/6 104/83/6
f 67/67/1 105/66/1 99/48/1 66/11/1
f 69/69/1 106/68/1 105/66/1 67/67/1
f 103/49/2 107/71/2 80/70/2 77/13/2
f 107/71/2 108/73/2 82/72/2 80/70/2
f 90/48/1 110/37/1 109/36/1 89/47/1
f 110/37/1 4/4/1 1/1/1 109/36/1
f 112/39/2 111/38/2 91/49/2 92/50/2
f 6/6/2 7/7/2 111/38/2 112/39/2
f 23/17/5 114/85/5 113/84/5 22/16/5
f 114/85/5 94/75/5 93/74/5 113/84/5
f 112/87/6 115/86/6 25/21/6 6/22/6
f 92/77/6 95/76/6 115/86/6 112/87/6
f 36/6/5 117/39/5 116/88/5 35/29/5
f 117/39/5 97/50/5 96/78/5 116/88/5
f 118/89/6 109/36/6 1/1/6 39/32/6
f 98/79/6 89/47/6 109/36/6 118/89/6
f 71/40/5 120/90/5 119/85/5 74/17/5
f 120/90/5 100/80/5 99/75/5 119/85/5
f 115/86/6 121/91/6 51/43/6 25/21/6
f 95/76/6 101/81/6 121/91/6 115/86/6
f 86/51/5 122/92/5 120/90/5 71/40/5
f 122/92/5 102/82/5 100/80/5 120/90/5
f 83/29/5 123/88/5 122/92/5 86/51/5
f 123/88/5 103/78/5 102/82/5 122/92/5
f 121/91/6 124/93/6 61/54/6 51/43/6
f 101/81/6 104/83/6 124/93/6 121/91/6
f 124/93/6 118/89/6 39/32/6 61/54/6
f 104/83/6 98/79/6 118/89/6 124/93/6
f 105/66/1 125/59/1 119/37/1 99/48/1
f 125/59/1 73/58/1 74/4/1 119/37/1
f 106/68/1 126/61/1 125/59/1 105/66/1
f 126/61/1 76/60/1 73/58/1 125/59/1
f 83/7/2 84/63/2 127/62/2 123/38/2
f 127/62/2 128/64/2 108/73/2 107/71/2
f 84/63/2 87/65/2 128/64/2 127/62/2
f 33/13/4 130/70/4 129/94/4 12/12/4
f 130/70/4 132/72/4 131/95/4 129/94/4
f 15/13/2 134/70/2 133/94/2 14/12/2
f 134/70/2 136/72/2 135/95/2 133/94/2
f 14/8/4 133/96/4 137/63/4 20/7/4
f 133/96/4 135/97/4 138/65/4 137/63/4
f 140/58/3 139/98/3 8/3/3 18/4/3
f 142/60/3 141/99/3 139/98/3 140/58/3
f 8/8/2 139/96/2 143/63/2 7/7/2
f 139/96/2 141/97/2 144/65/2 143/63/2
f 146/94/3 145/67/3 32/11/3 3/12/3
f 148/95/3 147/69/3 145/67/3 146/94/3
f 149/58/1 146/98/1 3/3/1 4/4/1
f 150/60/1 148/99/1 146/98/1 149/58/1
f 129/94/1 151/67/1 11/11/1 12/12/1
f 131/95/1 152/69/1 151/67/1 129/94/1
f 20/7/4 137/63/4 153/62/4 47/38/4
f 137/63/4 138/65/4 154/64/4 153/62/4
f 155/59/3 140/58/3 18/4/3 46/37/3
f 156/61/3 142/60/3 140/58/3 155/59/3
f 57/49/4 157/71/4 130/70/4 33/13/4
f 157/71/4 158/73/4 132/72/4 130/70/4
f 47/38/4 153/62/4 157/71/4 57/49/4
f 153/62/4 154/64/4 158/73/4 157/71/4
f 145/67/3 159/66/3 56/48/3 32/11/3
f 147/69/3 160/68/3 159/66/3 145/67/3
f 159/66/3 155/59/3 46/37/3 56/48/3
f 160/68/3 156/61/3 155/59/3 159/66/3
f 91/49/2 161/71/2 134/70/2 15/13/2
f 161/71/2 162/73/2 136/72/2 134/70/2
f 151/67/1 163/66/1 90/48/1 11/11/1
f 152/69/1 164/68/1 163/66/1 151/67/1
f 111/38/2 165/62/2 161/71/2 91/49/2
f 165/62/2 166/64/2 162/73/2 161/71/2
f 7/7/2 143/63/2 165/62/2 111/38/2
f 143/63/2 144/65/2 166/64/2 165/62/2
f 164/68/1 168/61/1 167/59/1 163/66/1
f 167/59/1 149/58/1 4/4/1 110/37/1
f 168/61/1 150/60/1 149/58/1 167/59/1
f 169/100/3 170/101/3 107/67/3 103/11/3
f 170/68/6 171/61/6 127/89/6 107/79/6
f 171/102/4 172/103/4 123/13/4 127/70/4
f 172/64/5 169/73/5 103/78/5 123/88/5
f 90/47/6 169/68/6 172/61/6 110/36/6
f 171/101/3 167/94/3 110/12/3 172/100/3
f 90/12/4 163/94/4 170/102/4 169/103/4
f 26/104/2 27/105/2 135/95/2 136/72/2
f 52/106/4 62/107/4 158/73/4 154/64/4
f 63/108/3 53/109/3 70/61/3 81/68/3
f 62/107/4 40/104/4 132/72/4 158/73/4
f 93/107/2 26/104/2 136/72/2 162/73/2
f 28/110/4 52/106/4 154/64/4 138/65/4
f 53/109/3 29/111/3 69/60/3 70/61/3
f 27/112/4 28/110/4 138/65/4 135/97/4
f 24/111/3 21/113/3 141/99/3 142/60/3
f 29/114/1 94/108/1 106/68/1 69/69/1
f 113/106/2 93/107/2 162/73/2 166/64/2
f 94/108/1 114/109/1 126/61/1 106/68/1
f 22/110/2 113/106/2 166/64/2 144/65/2
f 114/109/1 23/111/1 76/60/1 126/61/1
f 21/112/2 22/110/2 144/65/2 141/97/2
f 23/110/4 49/106/4 75/64/4 76/65/4
f 50/109/3 24/111/3 142/60/3 156/61/3
f 49/106/4 59/107/4 88/73/4 75/64/4
f 60/108/3 50/109/3 156/61/3 160/68/3
f 59/107/4 35/104/4 87/72/4 88/73/4
f 38/114/3 60/108/3 160/68/3 147/69/3
f 117/109/1 36/111/1 150/60/1 168/61/1
f 37/105/3 38/114/3 147/69/3 148/95/3
f 36/111/1 37/113/1 148/99/1 150/60/1
f 23/110/2 114/106/2 126/64/2 76/65/2
f 97/108/1 117/109/1 168/61/1 164/68/1
f 114/106/2 94/107/2 106/73/2 126/64/2
f 42/114/1 97/108/1 164/68/1 152/69/1
f 94/107/2 29/104/2 69/72/2 106/73/2
f 41/105/1 42/114/1 152/69/1 131/95/1
f 40/104/4 41/105/4 131/95/4 132/72/4
f 43/114/3 63/108/3 81/68/3 82/69/3
f 76/21/6 126/86/6 128/89/6 87/32/6
f 23/111/3 76/60/3 87/69/3 35/114/3
f 69/65/4 29/110/4 43/104/4 82/72/4
f 126/86/6 106/76/6 108/79/6 128/89/6
f 106/76/6 69/28/6 82/35/6 108/79/6

