# ProBuilder 4.2.3
# https://unity3d.com/unity/features/worldbuilding/probuilder
# 3/28/2020 8:34:22 PM

mtllib ./MainRoom.mtl
o MainRoom

g Cube(Clone)
v -9.5 0 0
v -18 0 0
v -18 0.5 0
v -9.5 0.5 0
v -18 0 28
v -9.5 0 28
v -9.5 0.5 28
v -18 0.5 28
v 8.5 0 0
v -0.5 0 0
v -0.5 0.5 0
v 8.5 0.5 0
v 8.5 0 28
v 8.5 0.5 28
v -0.5 0.5 28
v -0.5 0 28
v -18 0 9.5
v -18 0.5 9.5
v 8.5 0 9.5
v 8.5 0.5 9.5
v -9.5 0 9.5
v -0.5 0 9.5
v -18 0 0.5
v -18 0.5 0.5
v 8.5 0.5 0.5
v 8.5 0 0.5
v -9.5 0 0.5
v -0.5 0 0.5
v -18 0 6
v -18 0.5 6
v 8.5 0.5 6
v 8.5 0 6
v -9.5 0 6
v -0.5 0 6
v -18 0 4
v -18 0.5 4
v 8.5 0.5 4
v 8.5 0 4
v -9.5 0 4
v -0.5 0 4
v 8 0.5 6
v 8 0.5 27.5
v 8 3.5 27.5
v 8 3.5 6
v 8 5 27.5
v 8 5 6
v -17.5 0.5 6
v -17.5 3.5 6
v -17.5 3.5 27.5
v -17.5 0.5 27.5
v -17.5 5 6
v -17.5 5 27.5
v 8 0.5 0.5
v 8 0.5 4
v 8 3.5 4
v 8 3.5 0.5
v 8 5 4
v 8 5 0.5
v -17.5 0.5 0.5
v -17.5 3.5 0.5
v -17.5 3.5 4
v -17.5 0.5 4
v -17.5 5 0.5
v -17.5 5 4
v -6 0 0
v -6 0.5 0
v -6 0.5 28
v -6 0 28
v -6 0 9.5
v -6 0 0.5
v -12.3493 4.5 22.1841
v -11.1507 4.5 22.1841
v -11.1507 4.5 20.8159
v -12.3493 4.5 20.8159
v -6 0 6
v -14.5 3.5 5.75
v -10.64787 3.5 5.75
v -10.64787 3.5 4.53434
v -14.5 3.5 4.53434
v -6 0.5 4
v -6 0.5 0.5
v -6 0 4
v -6 0.5 27.5
v -6 3.5 27.5
v -6 5 27.5
v -6 3.5 0.5
v -4 3.5 0.5
v -4 5 0.5
v -6 5 0.5
v 8.5 3.5 0
v 8.5 3.5 0.5
v 8.5 5 0
v 8.5 5 0.5
v 8.5 3.5 28
v -0.5 3.5 28
v 8.5 5 28
v -0.5 5 28
v 8.5 3.5 9.5
v 8.5 5 27.5
v -18 3.5 28
v -18 3.5 9.5
v -18 5 28
v -18 5 27.5
v -9.5 3.5 28
v -9.5 5 28
v -18 3.5 0.5
v -18 3.5 0
v -18 5 0.5
v -18 5 0
v -9.5 3.5 0
v -9.5 5 0
v -0.5 3.5 0
v -0.5 5 0
v 8.5 3.5 6
v 8.5 5 6
v -18 3.5 6
v -18 5 6
v 8.5 3.5 4
v 8.5 5 4
v -18 3.5 4
v -18 5 4
v -6 3.5 28
v -6 5 28
v -6 3.5 0
v -6 5 0
v -4 5 0
v -4 3.5 0
v -4 0.5 0.5
v -4 0.5 -5
v -4 3.5 -5
v -6 3.5 -5
v -6 0.5 -5
v -4 0.5 0
v -4 0.5 27.5
v -4 0.5 6
v 0.4388084 0.5 19.54713
v 0.4388084 0.5 13.95287
v 3.561192 0.5 13.95287
v 3.561192 0.5 19.54713
v 0.4388084 2.5 19.54713
v 0.4388084 2.5 13.95287
v 3.561192 2.5 13.95287
v 3.561192 2.5 19.54713
v -4 0 0
v -5 0.5 0
v -5 0 0
v -4 0 28
v -5 0 28
v -5 0.5 28
v -4 0.5 28
v -5 0 9.5
v -4 0 9.5
v -5 0 0.5
v -4 0 0.5
v -6 0.5 6
v -5 0.5 6
v -5 0.5 27.5
v -5 0 6
v -4 0 6
v -6 1.5 6
v -6 1.5 4
v -5 1.5 4
v -5 1.5 6
v -4 1.5 4
v -4 1.5 6
v -5 0.5 0.5
v -5 0.5 4
v -4 0.5 4
v -5 0 4
v -4 0 4
v -4 3.5 27.5
v -5 3.5 27.5
v -4 5 27.5
v -5 5 27.5
v -5 3.5 28
v -4 3.5 28
v -5 5 28
v -4 5 28
v -5 0.5 -5
v -2.25 0.5 0
v -2.25 0 0
v -2.25 0 28
v -2.25 0.5 28
v -2.25 0 9.5
v -2.25 0 0.5
v 2 2.5 13.95287
v 2 2.5 19.54713
v -2.25 0 6
v 2 0.5 4
v 2 0.5 6
v 4.025981 2.5 4.486503
v 5.974018 2.5 4.486503
v 5.974018 2.5 5.513497
v 4.025981 2.5 5.513497
v 2 0.5 0.5
v -2.25 0 4
v 2 3.5 27.5
v 2 0.5 27.5
v 2 5 27.5
v 2 3.5 0.5
v 2 5 0.5
v -2.25 3.5 28
v -2.25 5 28
v -2.25 3.5 0
v -2.25 5 0
v 2 0.5 13.95287
v 2 0.5 19.54713
v 4.025981 0.5 4.486503
v 5.974018 0.5 4.486503
v 5.974018 0.5 5.513497
v 4.025981 0.5 5.513497
v -14.5 0.5 5.75
v -14.5 0.5 4.53434
v -10.64787 0.5 4.53434
v -10.64787 0.5 5.75
v -13.07265 0.5 23.00982
v -13.07265 0.5 19.99018
v -10.42735 0.5 19.99018
v -10.42735 0.5 23.00982
v -13.07265 3 23.00982
v -13.07265 3 19.99018
v -10.42735 3 19.99018
v -10.42735 3 23.00982
v -12.3493 3 22.1841
v -12.3493 3 20.8159
v -11.1507 3 20.8159
v -11.1507 3 22.1841
v 2 5 13.95287
v 3.561192 5 13.95287
v 3.561192 5 19.54713
v 2 5 19.54713
v -17.5 5.5 0.5
v -17.5 5.5 4
v -9.5 5.5 0
v -6 5.5 0
v -4 5.5 0
v -6 5.5 0.5
v -18 5.5 0.5
v -18 5.5 0
v -18 5.5 4
v -17.5 5.5 6
v -18 5.5 6
v -17.5 5.5 27.5
v -18 5.5 27.5
v -6 5.5 27.5
v -18 5.5 28
v -9.5 5.5 28
v -5 5.5 28
v -6 5.5 28
v -5 5.5 27.5
v -4 5.5 28
v -4 5.5 27.5
v -2.25 5.5 28
v 2 5.5 27.5
v 8 5.5 27.5
v -0.5 5.5 28
v 8.5 5.5 27.5
v 8.5 5.5 28
v 8.5 5.5 6
v 8 5.5 0.5
v 2 5.5 0.5
v 8.5 5.5 4
v -2.25 5.5 0
v -0.5 5.5 0
v 8.5 5.5 0.5
v 8.5 5.5 0
v -4 5.5 0.5

vt 9.5 0
vt 18 0
vt 18 0.5
vt 9.5 0.5
vt -18 0
vt -9.5 0
vt -9.5 0.5
vt -18 0.5
vt -8.5 0
vt 0.5 0
vt 0.5 0.5
vt -8.5 0.5
vt 8.5 0
vt 8.5 0.5
vt -0.5 0.5
vt -0.5 0
vt 28 0
vt 28 0.5
vt -28 0
vt -28 0.5
vt -18 28
vt -18 9.5
vt -9.5 9.5
vt -9.5 28
vt -0.5 28
vt -0.5 9.5
vt 8.5 9.5
vt 8.5 28
vt 0 0
vt 0 0.5
vt 6 0
vt 6 0.5
vt -6 0.5
vt -6 0
vt -18 6
vt -9.5 6
vt -0.5 6
vt 8.5 6
vt 4 0
vt 4 0.5
vt -4 0.5
vt -4 0
vt -18 4
vt -9.5 4
vt -0.5 4
vt 8.5 4
vt 27.5 0.5
vt 27.5 3.5
vt 6 3.5
vt 27.5 5
vt 6 5
vt -6 3.5
vt -27.5 3.5
vt -27.5 0.5
vt -6 5
vt -27.5 5
vt 4 3.5
vt 0.5 3.5
vt 4 5
vt 0.5 5
vt -0.5 3.5
vt -4 3.5
vt -0.5 5
vt -4 5
vt -6 9.5
vt -6 28
vt 12.3493 22.1841
vt 11.1507 22.1841
vt 11.1507 20.8159
vt 12.3493 20.8159
vt -6 6
vt 14.5 5.75
vt 10.64787 5.75
vt 10.64787 4.53434
vt 14.5 4.53434
vt 17.5 4
vt 6 4
vt 17.5 0.5
vt -6 4
vt 17.5 3.5
vt 17.5 5
vt -17.5 3.5
vt -17.5 0.5
vt -17.5 5
vt 0 3.5
vt 0 5
vt 8.5 3.5
vt 8.5 5
vt -9.5 3.5
vt -28 3.5
vt -28 5
vt 28 3.5
vt 9.5 3.5
vt 28 5
vt -18 3.5
vt -9.5 5
vt -18 5
vt 18 3.5
vt 18 5
vt 9.5 5
vt -8.5 3.5
vt -8.5 5
vt -5 0.5
vt -5 3.5
vt -4 -5
vt -6 -5
vt 5 3.5
vt 5 0.5
vt 4 27.5
vt 4 6
vt -0.4388084 19.54713
vt -0.4388084 13.95287
vt -8 6
vt -8 27.5
vt -3.561192 13.95287
vt -3.561192 19.54713
vt 19.54713 0.5
vt 13.95287 0.5
vt 19.54713 2.5
vt 13.95287 2.5
vt -13.95287 0.5
vt -19.54713 0.5
vt -13.95287 2.5
vt -19.54713 2.5
vt 5 0
vt -5 0
vt -5 28
vt -5 9.5
vt -4 28
vt -4 9.5
vt 6 27.5
vt 6 6
vt 5 6
vt 5 27.5
vt -5 6
vt -4 6
vt 5 4
vt 4 4
vt -5 4
vt -4 4
vt 5 5
vt -5 5
vt 6 -5
vt 5 -5
vt 4 -5
vt -5 -5
vt 2.25 0.5
vt 2.25 0
vt -2.25 0
vt -2.25 0.5
vt -2.25 28
vt -2.25 9.5
vt -2 13.95287
vt -2 19.54713
vt -2.25 6
vt -2 4
vt -2 6
vt -4.025981 4.486503
vt -5.974018 4.486503
vt -5.974018 5.513497
vt -4.025981 5.513497
vt -2 0.5
vt -8 0.5
vt -8 4
vt -2.25 4
vt -8 3.5
vt -2 3.5
vt -8 5
vt -2 5
vt 8 0.5
vt 2 0.5
vt 2 3.5
vt 8 3.5
vt 2 5
vt 8 5
vt -2.25 3.5
vt -2.25 5
vt 2.25 3.5
vt 2.25 5
vt -2 27.5
vt -0.4388084 0.5
vt -2 2.5
vt -0.4388084 2.5
vt -3.561192 0.5
vt -3.561192 2.5
vt 3.561192 0.5
vt 2 2.5
vt 3.561192 2.5
vt 0.4388084 0.5
vt 0.4388084 2.5
vt -4.025981 0.5
vt -5.974018 0.5
vt -4.025981 2.5
vt -5.974018 2.5
vt -4.486503 0.5
vt -5.513497 0.5
vt -4.486503 2.5
vt -5.513497 2.5
vt 5.513497 0.5
vt 4.486503 0.5
vt 5.513497 2.5
vt 4.486503 2.5
vt 5.974018 0.5
vt 4.025981 0.5
vt 5.974018 2.5
vt 4.025981 2.5
vt 17.5 6
vt 5.75 0.5
vt 4.53434 0.5
vt 5.75 3.5
vt 4.53434 3.5
vt 14.5 0.5
vt 10.64787 0.5
vt 14.5 3.5
vt 10.64787 3.5
vt -4.53434 0.5
vt -5.75 0.5
vt -4.53434 3.5
vt -5.75 3.5
vt -10.64787 0.5
vt -14.5 0.5
vt -10.64787 3.5
vt -14.5 3.5
vt 17.5 27.5
vt 13.07265 23.00982
vt 13.07265 19.99018
vt 10.42735 19.99018
vt 10.42735 23.00982
vt 23.00982 0.5
vt 19.99018 0.5
vt 23.00982 3
vt 19.99018 3
vt 13.07265 0.5
vt 10.42735 0.5
vt 13.07265 3
vt 10.42735 3
vt -19.99018 0.5
vt -23.00982 0.5
vt -19.99018 3
vt -23.00982 3
vt -10.42735 0.5
vt -13.07265 0.5
vt -10.42735 3
vt -13.07265 3
vt 6 1.5
vt 5 1.5
vt -4 1.5
vt -5 1.5
vt 4 1.5
vt -6 1.5
vt 22.1841 3
vt 20.8159 3
vt 22.1841 4.5
vt 20.8159 4.5
vt 12.3493 3
vt 11.1507 3
vt 12.3493 4.5
vt 11.1507 4.5
vt -20.8159 3
vt -22.1841 3
vt -20.8159 4.5
vt -22.1841 4.5
vt -11.1507 3
vt -12.3493 3
vt -11.1507 4.5
vt -12.3493 4.5
vt -3.561192 5
vt -13.95287 5
vt -19.54713 5
vt 19.54713 5
vt 13.95287 5
vt 3.561192 5
vt -0.5 5.5
vt -4 5.5
vt 9.5 5.5
vt 6 5.5
vt 4 5.5
vt -6 5.5
vt -17.5 5.5
vt 0.5 5.5
vt 0 5.5
vt 18 5.5
vt -27.5 5.5
vt 27.5 5.5
vt 17.5 5.5
vt 28 5.5
vt -9.5 5.5
vt -18 5.5
vt -5 5.5
vt 5 5.5
vt -2.25 5.5
vt -2 5.5
vt -8 5.5
vt -28 5.5
vt 8.5 5.5
vt 8 5.5
vt 2 5.5
vt 2.25 5.5
vt -8.5 5.5
vt 8 27.5
vt 8 6
vt -17.5 27.5
vt -17.5 6
vt 8 4
vt -17.5 4

vn 0 0 -1
vn 0 0 1
vn -1 0 0
vn 1 0 0
vn 0 -1 0
vn 0 1 0

usemtl Prototype_512x512_Grey2
f 2/2/1 3/3/1 4/4/1 1/1/1
f 7/7/2 8/8/2 5/5/2 6/6/2
f 10/10/1 11/11/1 12/12/1 9/9/1
f 14/14/2 15/15/2 16/16/2 13/13/2
f 5/17/3 8/18/3 18/4/3 17/1/3
f 20/7/4 14/20/4 13/19/4 19/6/4
f 17/22/5 21/23/5 6/24/5 5/21/5
f 22/26/5 19/27/5 13/28/5 16/25/5
f 23/10/3 24/11/3 3/30/3 2/29/3
f 12/30/4 25/15/4 26/16/4 9/29/4
f 2/5/5 1/6/5 27/7/5 23/8/5
f 10/16/5 9/13/5 26/14/5 28/15/5
f 17/1/3 18/4/3 30/32/3 29/31/3
f 31/33/4 20/7/4 19/6/4 32/34/4
f 29/35/5 33/36/5 21/23/5 17/22/5
f 34/37/5 32/38/5 19/27/5 22/26/5
f 35/39/3 36/40/3 24/11/3 23/10/3
f 29/31/3 30/32/3 36/40/3 35/39/3
f 25/15/4 37/41/4 38/42/4 26/16/4
f 37/41/4 31/33/4 32/34/4 38/42/4
f 35/43/5 39/44/5 33/36/5 29/35/5
f 23/8/5 27/7/5 39/44/5 35/43/5
f 40/45/5 38/46/5 32/38/5 34/37/5
f 28/15/5 26/14/5 38/46/5 40/45/5
f 42/47/3 43/48/3 44/49/3 41/32/3
f 43/48/3 45/50/3 46/51/3 44/49/3
f 48/52/4 49/53/4 50/54/4 47/33/4
f 51/55/4 52/56/4 49/53/4 48/52/4
f 54/40/3 55/57/3 56/58/3 53/11/3
f 55/57/3 57/59/3 58/60/3 56/58/3
f 41/32/3 44/49/3 55/57/3 54/40/3
f 44/49/3 46/51/3 57/59/3 55/57/3
f 60/61/4 61/62/4 62/41/4 59/15/4
f 63/63/4 64/64/4 61/62/4 60/61/4
f 61/62/4 48/52/4 47/33/4 62/41/4
f 64/64/4 51/55/4 48/52/4 61/62/4
f 1/1/1 4/4/1 66/32/1 65/31/1
f 67/33/2 7/7/2 6/6/2 68/34/2
f 21/23/5 69/65/5 68/66/5 6/24/5
f 1/6/5 65/34/5 70/33/5 27/7/5
f 72/68/6 73/69/6 74/70/6 71/67/6
f 33/36/5 75/71/5 69/65/5 21/23/5
f 77/73/6 78/74/6 79/75/6 76/72/6
f 80/77/6 81/32/6 59/78/6 62/76/6
f 39/44/5 82/79/5 75/71/5 33/36/5
f 27/7/5 70/33/5 82/79/5 39/44/5
f 50/78/1 49/80/1 84/49/1 83/32/1
f 49/80/1 52/81/1 85/51/1 84/49/1
f 86/52/2 60/82/2 59/83/2 81/33/2
f 88/64/2 89/55/2 86/52/2 87/62/2
f 89/55/2 63/84/2 60/82/2 86/52/2
f 90/85/4 91/61/4 25/15/4 12/30/4
f 92/86/4 93/63/4 91/61/4 90/85/4
f 94/87/2 95/61/2 15/15/2 14/14/2
f 96/88/2 97/63/2 95/61/2 94/87/2
f 98/89/4 94/90/4 14/20/4 20/7/4
f 99/56/4 96/91/4 94/90/4 98/89/4
f 8/18/3 100/92/3 101/93/3 18/4/3
f 100/92/3 102/94/3 103/50/3 101/93/3
f 104/89/2 100/95/2 8/8/2 7/7/2
f 105/96/2 102/97/2 100/95/2 104/89/2
f 24/11/3 106/58/3 107/85/3 3/30/3
f 106/58/3 108/60/3 109/86/3 107/85/3
f 3/3/1 107/98/1 110/93/1 4/4/1
f 107/98/1 109/99/1 111/100/1 110/93/1
f 11/11/1 112/58/1 90/101/1 12/12/1
f 112/58/1 113/60/1 92/102/1 90/101/1
f 114/52/4 98/89/4 20/7/4 31/33/4
f 115/55/4 99/56/4 98/89/4 114/52/4
f 18/4/3 101/93/3 116/49/3 30/32/3
f 101/93/3 103/50/3 117/51/3 116/49/3
f 91/61/4 118/62/4 37/41/4 25/15/4
f 93/63/4 119/64/4 118/62/4 91/61/4
f 118/62/4 114/52/4 31/33/4 37/41/4
f 119/64/4 115/55/4 114/52/4 118/62/4
f 36/40/3 120/57/3 106/58/3 24/11/3
f 120/57/3 121/59/3 108/60/3 106/58/3
f 30/32/3 116/49/3 120/57/3 36/40/3
f 116/49/3 117/51/3 121/59/3 120/57/3
f 122/52/2 104/89/2 7/7/2 67/33/2
f 123/55/2 105/96/2 104/89/2 122/52/2
f 124/49/1 125/51/1 126/59/1 127/57/1
f 4/4/1 110/93/1 124/49/1 66/32/1
f 110/93/1 111/100/1 125/51/1 124/49/1
f 128/11/3 87/58/3 130/104/3 129/103/3
f 87/41/5 86/33/5 131/106/5 130/105/5
f 86/61/4 81/15/4 132/108/4 131/107/4
f 66/30/3 124/85/3 131/104/3 132/103/3
f 130/107/4 127/85/4 133/30/4 129/108/4
f 136/111/6 137/112/6 135/110/6 134/109/6
f 138/115/6 139/116/6 42/114/6 41/113/6
f 140/119/3 141/120/3 137/118/3 136/117/3
f 142/123/4 143/124/4 139/122/4 138/121/4
f 146/125/1 145/108/1 133/40/1 144/39/1
f 65/31/1 66/32/1 145/108/1 146/125/1
f 150/41/2 149/103/2 148/126/2 147/42/2
f 149/103/2 67/33/2 68/34/2 148/126/2
f 151/128/5 148/127/5 68/66/5 69/65/5
f 152/130/5 147/129/5 148/127/5 151/128/5
f 146/126/5 153/103/5 70/33/5 65/34/5
f 144/42/5 154/41/5 153/103/5 146/126/5
f 83/131/6 157/134/6 156/133/6 155/132/6
f 157/134/6 134/109/6 135/110/6 156/133/6
f 158/135/5 151/128/5 69/65/5 75/71/5
f 159/136/5 152/130/5 151/128/5 158/135/5
f 160/132/6 163/133/6 162/137/6 161/77/6
f 163/133/6 165/110/6 164/138/6 162/137/6
f 80/77/6 167/137/6 166/108/6 81/32/6
f 167/137/6 168/138/6 128/40/6 166/108/6
f 169/139/5 158/135/5 75/71/5 82/79/5
f 170/140/5 159/136/5 158/135/5 169/139/5
f 153/103/5 169/139/5 82/79/5 70/33/5
f 154/41/5 170/140/5 169/139/5 153/103/5
f 157/108/1 172/107/1 171/57/1 134/40/1
f 83/32/1 84/49/1 172/107/1 157/108/1
f 172/107/1 174/141/1 173/59/1 171/57/1
f 84/49/1 85/51/1 174/141/1 172/107/1
f 176/62/2 175/104/2 149/103/2 150/41/2
f 175/104/2 122/52/2 67/33/2 149/103/2
f 178/64/2 177/142/2 175/104/2 176/62/2
f 177/142/2 123/55/2 122/52/2 175/104/2
f 81/32/6 166/108/6 179/144/6 132/143/6
f 166/108/6 128/40/6 129/145/6 179/144/6
f 179/146/5 145/126/5 66/34/5 132/106/5
f 129/105/5 133/42/5 145/126/5 179/146/5
f 181/148/1 180/147/1 11/11/1 10/10/1
f 144/39/1 133/40/1 180/147/1 181/148/1
f 15/15/2 183/150/2 182/149/2 16/16/2
f 183/150/2 150/41/2 147/42/2 182/149/2
f 184/152/5 182/151/5 147/129/5 152/130/5
f 22/26/5 16/25/5 182/151/5 184/152/5
f 181/149/5 185/150/5 154/41/5 144/42/5
f 10/16/5 28/15/5 185/150/5 181/149/5
f 140/111/6 187/154/6 186/153/6 141/112/6
f 188/155/5 184/152/5 152/130/5 159/136/5
f 34/37/5 22/26/5 184/152/5 188/155/5
f 135/110/6 190/157/6 189/156/6 168/138/6
f 194/161/6 193/160/6 192/159/6 191/158/6
f 168/138/6 189/156/6 195/162/6 128/40/6
f 189/156/6 54/164/6 53/163/6 195/162/6
f 196/165/5 188/155/5 159/136/5 170/140/5
f 40/45/5 34/37/5 188/155/5 196/165/5
f 185/150/5 196/165/5 170/140/5 154/41/5
f 28/15/5 40/45/5 196/165/5 185/150/5
f 198/162/1 197/167/1 43/166/1 42/163/1
f 134/40/1 171/57/1 197/167/1 198/162/1
f 197/167/1 199/169/1 45/168/1 43/166/1
f 171/57/1 173/59/1 199/169/1 197/167/1
f 56/173/2 200/172/2 195/171/2 53/170/2
f 200/172/2 87/62/2 128/41/2 195/171/2
f 58/175/2 201/174/2 200/172/2 56/173/2
f 201/174/2 88/64/2 87/62/2 200/172/2
f 95/61/2 202/176/2 183/150/2 15/15/2
f 202/176/2 176/62/2 150/41/2 183/150/2
f 97/63/2 203/177/2 202/176/2 95/61/2
f 203/177/2 178/64/2 176/62/2 202/176/2
f 180/147/1 204/178/1 112/58/1 11/11/1
f 133/40/1 127/57/1 204/178/1 180/147/1
f 204/178/1 205/179/1 113/60/1 112/58/1
f 127/57/1 126/59/1 205/179/1 204/178/1
f 206/153/6 190/157/6 135/110/6 137/112/6
f 138/115/6 41/113/6 190/157/6 206/153/6
f 42/114/6 139/116/6 207/154/6 198/180/6
f 134/109/6 198/180/6 207/154/6 136/111/6
f 137/181/1 141/183/1 186/182/1 206/162/1
f 206/162/1 186/182/1 142/185/1 138/184/1
f 143/188/2 187/187/2 207/171/2 139/186/2
f 187/187/2 140/190/2 136/189/2 207/171/2
f 208/158/6 209/159/6 54/164/6 189/156/6
f 209/159/6 210/160/6 41/113/6 54/164/6
f 211/161/6 208/158/6 189/156/6 190/157/6
f 210/160/6 211/161/6 190/157/6 41/113/6
f 191/193/1 192/194/1 209/192/1 208/191/1
f 192/197/4 193/198/4 210/196/4 209/195/4
f 194/201/3 191/202/3 208/200/3 211/199/3
f 193/205/2 194/206/2 211/204/2 210/203/2
f 212/72/6 213/75/6 62/76/6 47/207/6
f 213/75/6 214/74/6 80/77/6 62/76/6
f 214/74/6 215/73/6 155/132/6 80/77/6
f 215/73/6 212/72/6 47/207/6 155/132/6
f 76/210/3 79/211/3 213/209/3 212/208/3
f 79/214/1 78/215/1 214/213/1 213/212/1
f 78/218/4 77/219/4 215/217/4 214/216/4
f 77/222/2 76/223/2 212/221/2 215/220/2
f 216/225/6 217/226/6 47/207/6 50/224/6
f 217/226/6 218/227/6 155/132/6 47/207/6
f 218/227/6 219/228/6 83/131/6 155/132/6
f 219/228/6 216/225/6 50/224/6 83/131/6
f 220/231/3 221/232/3 217/230/3 216/229/3
f 221/235/1 222/236/1 218/234/1 217/233/1
f 222/239/4 223/240/4 219/238/4 218/237/4
f 223/243/2 220/244/2 216/242/2 219/241/2
f 161/245/1 162/246/1 167/108/1 80/32/1
f 165/247/2 163/248/2 156/103/2 135/41/2
f 160/245/3 161/249/3 80/40/3 155/32/3
f 163/248/2 160/250/2 155/33/2 156/103/2
f 162/246/1 164/249/1 168/40/1 167/108/1
f 164/247/4 165/250/4 135/33/4 168/41/4
f 224/67/6 225/70/6 221/226/6 220/225/6
f 225/70/6 226/69/6 222/227/6 221/226/6
f 226/69/6 227/68/6 223/228/6 222/227/6
f 227/68/6 224/67/6 220/225/6 223/228/6
f 71/253/3 74/254/3 225/252/3 224/251/3
f 74/257/1 73/258/1 226/256/1 225/255/1
f 73/261/4 72/262/4 227/260/4 226/259/4
f 72/265/2 71/266/2 224/264/2 227/263/2
f 228/169/1 229/267/1 142/185/1 186/182/1
f 229/268/4 230/269/4 143/124/4 142/123/4
f 231/270/3 228/271/3 186/120/3 187/119/3
f 230/272/2 231/174/2 187/187/2 143/188/2
f 232/273/4 233/274/4 64/64/4 63/63/4
f 234/275/1 235/276/1 125/51/1 111/100/1
f 235/276/1 236/277/1 126/59/1 125/51/1
f 237/278/2 232/279/2 63/84/2 89/55/2
f 238/280/3 239/281/3 109/86/3 108/60/3
f 239/282/1 234/275/1 111/100/1 109/99/1
f 240/277/3 238/280/3 108/60/3 121/59/3
f 233/274/4 241/278/4 51/55/4 64/64/4
f 242/276/3 240/277/3 121/59/3 117/51/3
f 241/278/4 243/283/4 52/56/4 51/55/4
f 244/284/3 242/276/3 117/51/3 103/50/3
f 243/285/1 245/276/1 85/51/1 52/81/1
f 246/286/3 244/284/3 103/50/3 102/94/3
f 247/287/2 246/288/2 102/97/2 105/96/2
f 248/289/2 249/278/2 123/55/2 177/142/2
f 249/278/2 247/287/2 105/96/2 123/55/2
f 245/276/1 250/290/1 174/141/1 85/51/1
f 251/274/2 248/289/2 177/142/2 178/64/2
f 250/290/1 252/277/1 173/59/1 174/141/1
f 253/291/2 251/274/2 178/64/2 203/177/2
f 252/277/1 254/292/1 199/169/1 173/59/1
f 254/292/1 255/293/1 45/168/1 199/169/1
f 256/273/2 253/291/2 203/177/2 97/63/2
f 241/276/3 233/277/3 64/59/3 51/51/3
f 257/283/4 258/294/4 96/91/4 99/56/4
f 258/295/2 256/273/2 97/63/2 96/88/2
f 243/284/3 241/276/3 51/51/3 52/50/3
f 233/277/3 232/280/3 63/60/3 64/59/3
f 259/278/4 257/283/4 99/56/4 115/55/4
f 260/296/2 261/297/2 201/174/2 58/175/2
f 262/274/4 259/278/4 115/55/4 119/64/4
f 263/298/1 264/280/1 113/60/1 205/179/1
f 265/273/4 262/274/4 119/64/4 93/63/4
f 264/280/1 266/299/1 92/102/1 113/60/1
f 266/281/4 265/273/4 93/63/4 92/86/4
f 261/297/2 267/274/2 88/64/2 201/174/2
f 267/274/2 237/278/2 89/55/2 88/64/2
f 236/277/1 263/298/1 205/179/1 126/59/1
f 52/302/5 51/303/5 46/301/5 45/300/5
f 243/279/2 52/84/2 45/175/2 255/296/2
f 63/81/1 232/285/1 260/293/1 58/168/1
f 51/303/5 64/305/5 57/304/5 46/301/5
f 64/305/5 63/83/5 58/170/5 57/304/5

